<?xml version="1.0" encoding="UTF-8" standalone="no"?>
<svg xmlns="http://www.w3.org/2000/svg" width="1024" height="1024" viewBox="0 0 1024 1024">
  <rect width="1024" height="1024" rx="220" ry="220" fill="#262626"/>
  <path d="M 164,0 L 163,1 L 156,1 L 155,2 L 150,2 L 149,3 L 145,3 L 144,4 L 140,4 L 139,5 L 136,5 L 135,6 L 132,6 L 131,7 L 129,7 L 128,8 L 126,8 L 125,9 L 123,9 L 122,10 L 120,10 L 119,11 L 117,11 L 116,12 L 115,12 L 114,13 L 112,13 L 111,14 L 110,14 L 109,15 L 108,15 L 107,16 L 105,16 L 104,17 L 103,17 L 102,18 L 101,18 L 100,19 L 99,19 L 98,20 L 97,20 L 96,21 L 95,21 L 93,23 L 92,23 L 91,24 L 90,24 L 89,25 L 88,25 L 86,27 L 85,27 L 83,29 L 82,29 L 80,31 L 79,31 L 77,33 L 76,33 L 74,35 L 73,35 L 69,39 L 68,39 L 64,43 L 63,43 L 43,63 L 43,64 L 38,69 L 38,70 L 35,73 L 35,74 L 33,76 L 33,77 L 30,80 L 30,81 L 28,83 L 28,84 L 27,85 L 27,86 L 25,88 L 25,89 L 24,90 L 24,91 L 22,93 L 22,94 L 21,95 L 21,96 L 20,97 L 20,98 L 19,99 L 19,100 L 18,101 L 18,102 L 17,103 L 17,104 L 16,105 L 16,106 L 15,107 L 15,109 L 14,110 L 14,111 L 13,112 L 13,114 L 12,115 L 12,116 L 11,117 L 11,119 L 10,120 L 10,122 L 9,123 L 9,125 L 8,126 L 8,128 L 7,129 L 7,132 L 6,133 L 6,135 L 5,136 L 5,139 L 4,140 L 4,144 L 3,145 L 3,150 L 2,151 L 2,156 L 1,157 L 1,165 L 0,166 L 0,856 L 1,857 L 1,866 L 2,867 L 2,872 L 3,873 L 3,877 L 4,878 L 4,882 L 5,883 L 5,886 L 6,887 L 6,890 L 7,891 L 7,894 L 8,895 L 8,897 L 9,898 L 9,900 L 10,901 L 10,903 L 11,904 L 11,906 L 12,907 L 12,908 L 13,909 L 13,911 L 14,912 L 14,913 L 15,914 L 15,916 L 16,917 L 16,918 L 17,919 L 17,920 L 18,921 L 18,922 L 19,923 L 19,924 L 20,925 L 20,926 L 21,927 L 21,928 L 22,929 L 22,930 L 23,931 L 23,932 L 25,934 L 25,935 L 26,936 L 26,937 L 28,939 L 28,940 L 29,941 L 29,942 L 31,944 L 31,945 L 33,947 L 33,948 L 36,951 L 36,952 L 39,955 L 39,956 L 44,961 L 44,962 L 63,981 L 64,981 L 68,985 L 69,985 L 73,989 L 74,989 L 76,991 L 77,991 L 79,993 L 80,993 L 82,995 L 83,995 L 85,997 L 86,997 L 88,999 L 89,999 L 90,1000 L 91,1000 L 92,1001 L 93,1001 L 95,1003 L 96,1003 L 97,1004 L 98,1004 L 99,1005 L 100,1005 L 101,1006 L 103,1006 L 104,1007 L 105,1007 L 106,1008 L 107,1008 L 108,1009 L 109,1009 L 110,1010 L 112,1010 L 113,1011 L 114,1011 L 115,1012 L 117,1012 L 118,1013 L 120,1013 L 121,1014 L 123,1014 L 124,1015 L 126,1015 L 127,1016 L 129,1016 L 130,1017 L 133,1017 L 134,1018 L 137,1018 L 138,1019 L 141,1019 L 142,1020 L 147,1020 L 148,1021 L 153,1021 L 154,1022 L 161,1022 L 162,1023 L 863,1023 L 864,1022 L 870,1022 L 871,1021 L 876,1021 L 877,1020 L 881,1020 L 882,1019 L 885,1019 L 886,1018 L 889,1018 L 890,1017 L 893,1017 L 894,1016 L 896,1016 L 897,1015 L 899,1015 L 900,1014 L 902,1014 L 903,1013 L 905,1013 L 906,1012 L 908,1012 L 909,1011 L 910,1011 L 911,1010 L 913,1010 L 914,1009 L 915,1009 L 916,1008 L 917,1008 L 918,1007 L 919,1007 L 920,1006 L 921,1006 L 922,1005 L 923,1005 L 924,1004 L 925,1004 L 926,1003 L 927,1003 L 928,1002 L 929,1002 L 930,1001 L 931,1001 L 933,999 L 934,999 L 935,998 L 936,998 L 937,997 L 938,997 L 940,995 L 941,995 L 943,993 L 944,993 L 947,990 L 948,990 L 950,988 L 951,988 L 955,984 L 956,984 L 961,979 L 962,979 L 977,964 L 977,963 L 982,958 L 982,957 L 986,953 L 986,952 L 989,949 L 989,948 L 991,946 L 991,945 L 993,943 L 993,942 L 995,940 L 995,939 L 996,938 L 996,937 L 998,935 L 998,934 L 999,933 L 999,932 L 1001,930 L 1001,929 L 1002,928 L 1002,927 L 1003,926 L 1003,925 L 1004,924 L 1004,923 L 1005,922 L 1005,921 L 1006,920 L 1006,919 L 1007,918 L 1007,916 L 1008,915 L 1008,914 L 1009,913 L 1009,912 L 1010,911 L 1010,909 L 1011,908 L 1011,906 L 1012,905 L 1012,904 L 1013,903 L 1013,901 L 1014,900 L 1014,898 L 1015,897 L 1015,895 L 1016,894 L 1016,891 L 1017,890 L 1017,887 L 1018,886 L 1018,883 L 1019,882 L 1019,878 L 1020,877 L 1020,873 L 1021,872 L 1021,866 L 1022,865 L 1022,857 L 1023,856 L 1023,165 L 1022,164 L 1022,157 L 1021,156 L 1021,150 L 1020,149 L 1020,145 L 1019,144 L 1019,140 L 1018,139 L 1018,136 L 1017,135 L 1017,132 L 1016,131 L 1016,129 L 1015,128 L 1015,126 L 1014,125 L 1014,122 L 1013,121 L 1013,120 L 1012,119 L 1012,117 L 1011,116 L 1011,114 L 1010,113 L 1010,112 L 1009,111 L 1009,109 L 1008,108 L 1008,107 L 1007,106 L 1007,105 L 1006,104 L 1006,103 L 1005,102 L 1005,101 L 1004,100 L 1004,99 L 1003,98 L 1003,97 L 1002,96 L 1002,95 L 1001,94 L 1001,93 L 1000,92 L 1000,91 L 998,89 L 998,88 L 997,87 L 997,86 L 995,84 L 995,83 L 994,82 L 994,81 L 992,79 L 992,78 L 989,75 L 989,74 L 986,71 L 986,70 L 983,67 L 983,66 L 977,60 L 977,59 L 964,46 L 963,46 L 957,40 L 956,40 L 953,37 L 952,37 L 949,34 L 948,34 L 946,32 L 945,32 L 942,29 L 941,29 L 940,28 L 939,28 L 937,26 L 936,26 L 935,25 L 934,25 L 932,23 L 931,23 L 930,22 L 929,22 L 928,21 L 927,21 L 926,20 L 925,20 L 924,19 L 923,19 L 922,18 L 921,18 L 920,17 L 919,17 L 918,16 L 917,16 L 916,15 L 915,15 L 914,14 L 912,14 L 911,13 L 910,13 L 909,12 L 907,12 L 906,11 L 905,11 L 904,10 L 902,10 L 901,9 L 899,9 L 898,8 L 896,8 L 895,7 L 892,7 L 891,6 L 889,6 L 888,5 L 885,5 L 884,4 L 880,4 L 879,3 L 875,3 L 874,2 L 869,2 L 868,1 L 861,1 L 860,0 Z" fill="#12C7C1"/>
</svg>
