<?xml version="1.0" encoding="UTF-8" standalone="no"?>
<svg width="1024" height="1024" viewBox="0 0 1024 1024" xmlns="http://www.w3.org/2000/svg">
  <defs>
    <style>
      .bg { fill: #262626; }
      .teal { fill: #12C7C1; stroke: #12C7C1; }
    </style>
  </defs>

  <!-- Rounded app icon background -->
  <rect class="bg" x="0" y="0" width="1024" height="1024" rx="220" ry="220"/>

  <!-- Wi‑Fi arcs -->
  <g fill="none" stroke="#12C7C1" stroke-width="28" stroke-linecap="round">
    <path d="M 332 360 A 180 180 0 0 1 692 360"/>
    <path d="M 377 390 A 135 135 0 0 1 647 390"/>
    <path d="M 422 420 A 90 90 0 0 1 602 420"/>
  </g>

  <!-- Car silhouette -->
  <g class="teal">
    <!-- Body / bumper -->
    <path d="M 210 700
             Q 210 650 260 640
             Q 320 560 430 560
             L 600 560
             Q 700 570 760 630
             Q 820 630 860 660
             Q 900 690 900 720
             L 900 760
             Q 900 800 860 800
             L 760 800
             A 120 120 0 0 0 520 800
             L 220 800
             Q 180 800 180 760
             L 180 720
             Q 180 700 210 700 Z"/>
    <!-- Wheels -->
    <circle cx="340" cy="800" r="90"/>
    <circle cx="720" cy="800" r="90"/>
  </g>
</svg>
