<svg width="27" height="18" viewBox="0 0 27 18" fill="none" xmlns="http://www.w3.org/2000/svg">
    <g clip-path="url(#clip0_0_1)">
        <path d="M21.54 14.25C21.54 14.6478 21.382 15.0294 21.1007 15.3107C20.8194 15.592 20.4379 15.75 20.04 15.75H6.54004C6.14221 15.75 5.76068 15.592 5.47938 15.3107C5.19807 15.0294 5.04004 14.6478 5.04004 14.25V6C5.04004 5.60218 5.19807 5.22064 5.47938 4.93934C5.76068 4.65803 6.14221 4.5 6.54004 4.5H9.54004L11.04 2.25H15.54L17.04 4.5H20.04C20.4379 4.5 20.8194 4.65803 21.1007 4.93934C21.382 5.22064 21.54 5.60218 21.54 6V14.25Z" stroke="white" stroke-width="2" stroke-linecap="round" stroke-linejoin="round"/>
        <path d="M13.29 12.75C14.9469 12.75 16.29 11.4069 16.29 9.75C16.29 8.09315 14.9469 6.75 13.29 6.75C11.6332 6.75 10.29 8.09315 10.29 9.75C10.29 11.4069 11.6332 12.75 13.29 12.75Z" stroke="white" stroke-width="2" stroke-linecap="round" stroke-linejoin="round"/>
    </g>
    <rect x="20" y="11" width="3" height="3" fill="#969696"/>
    <path d="M18.79 8.75L21.29 11.25L23.79 8.75" stroke="white" stroke-width="1.5" stroke-linecap="round" stroke-linejoin="round"/>
    <ellipse cx="21.4092" cy="14" rx="0.875" ry="1" fill="white"/>
    <rect x="6.58398" y="9" width="3" height="3" transform="rotate(180 6.58398 9)" fill="#969696"/>
    <path d="M7.79395 11.25L5.29395 8.75L2.79395 11.25" stroke="white" stroke-width="1.5" stroke-linecap="round" stroke-linejoin="round"/>
    <ellipse cx="5.1748" cy="6" rx="0.875" ry="1" transform="rotate(180 5.1748 6)" fill="white"/>
    <defs>
        <clipPath id="clip0_0_1">
            <rect width="18" height="18" fill="white" transform="translate(4.29004)"/>
        </clipPath>
    </defs>
</svg>
