<svg width="114" height="88" viewBox="0 0 114 88" fill="none" xmlns="http://www.w3.org/2000/svg">
    <path d="M111.069 22.5021C81.0575 -7.5007 32.084 -7.5007 2.07164 22.5021C-0.690548 25.2643 -0.690548 29.6578 2.07164 32.42C4.83503 35.181 9.22975 35.181 11.9919 32.42C36.6038 7.81529 76.5365 7.81529 101.148 32.42C102.529 33.8011 104.288 34.4279 106.046 34.4279C107.804 34.4279 109.688 33.8011 110.944 32.42C113.706 29.7829 113.706 25.2643 111.069 22.5021Z" fill="#03BFB5"/>
    <path d="M56.5707 23.3815C42.2557 23.3815 28.6938 28.9047 18.6472 39.0728C15.885 41.835 15.885 46.2286 18.6472 48.9908C21.4106 51.7518 25.8053 51.7518 28.5675 48.9908C44.0134 33.5496 69.1281 33.5496 84.5728 48.9908C85.9539 50.3707 87.7127 50.9986 89.4704 50.9986C91.228 50.9986 93.112 50.3707 94.368 48.9908C97.1302 46.2286 97.1302 41.835 94.368 39.0728C84.4477 28.9047 70.8857 23.3815 56.5707 23.3815Z" fill="#03BFB5"/>
    <path d="M56.5708 46.7303C48.4081 46.7303 40.8735 49.869 35.0976 55.6436C32.3355 58.4058 32.3355 62.7994 35.0976 65.5604C37.8598 68.3226 42.2558 68.3226 45.0179 65.5604C48.1567 62.4228 52.1749 60.7903 56.5708 60.7903C60.9655 60.7903 64.9837 62.5479 68.1236 65.5604C69.5047 66.9415 71.2624 67.5695 73.02 67.5695C74.7788 67.5695 76.6616 66.9415 77.9176 65.5604C80.6798 62.7994 80.6798 58.4058 77.9176 55.6436C72.2669 49.869 64.7322 46.7303 56.5708 46.7303Z" fill="#03BFB5"/>
    <path d="M49.9155 71.963C46.2739 75.6035 46.2739 81.5044 49.9155 85.1448C53.5571 88.7852 59.458 88.7852 63.0996 85.1448C66.7413 81.5044 66.7413 75.6035 63.0996 71.963C59.5843 68.3226 53.5571 68.3226 49.9155 71.963Z" fill="#03BFB5"/>
</svg>
