<svg width="28" height="28" viewBox="0 0 38 38" fill="none" xmlns="http://www.w3.org/2000/svg">
<path d="M14.6459 34.8333L14.0125 29.7666C13.6695 29.6347 13.3462 29.4763 13.0427 29.2916C12.7393 29.1069 12.4424 28.909 12.1521 28.6979L7.44169 30.677L3.08752 23.1562L7.16461 20.0687C7.13822 19.884 7.12502 19.7059 7.12502 19.5343V18.4656C7.12502 18.2941 7.13822 18.1159 7.16461 17.9312L3.08752 14.8437L7.44169 7.32288L12.1521 9.30204C12.4424 9.09093 12.7459 8.89301 13.0625 8.70829C13.3792 8.52357 13.6959 8.36524 14.0125 8.23329L14.6459 3.16663H23.3542L23.9875 8.23329C24.3306 8.36524 24.6538 8.52357 24.9573 8.70829C25.2608 8.89301 25.5577 9.09093 25.8479 9.30204L30.5584 7.32288L34.9125 14.8437L30.8354 17.9312C30.8618 18.1159 30.875 18.2941 30.875 18.4656V19.5343C30.875 19.7059 30.8486 19.884 30.7959 20.0687L34.8729 23.1562L30.5188 30.677L25.8479 28.6979C25.5577 28.909 25.2542 29.1069 24.9375 29.2916C24.6209 29.4763 24.3042 29.6347 23.9875 29.7666L23.3542 34.8333H14.6459ZM17.4167 31.6666H20.5438L21.0979 27.4708C21.916 27.2597 22.6747 26.9496 23.374 26.5406C24.0733 26.1316 24.7132 25.6368 25.2938 25.0562L29.2125 26.6791L30.7563 23.9875L27.3521 21.4145C27.4841 21.0451 27.5764 20.6559 27.6292 20.2468C27.682 19.8378 27.7084 19.4222 27.7084 19C27.7084 18.5777 27.682 18.1621 27.6292 17.7531C27.5764 17.3441 27.4841 16.9548 27.3521 16.5854L30.7563 14.0125L29.2125 11.3208L25.2938 12.9833C24.7132 12.3763 24.0733 11.8684 23.374 11.4593C22.6747 11.0503 21.916 10.7402 21.0979 10.5291L20.5834 6.33329H17.4563L16.9021 10.5291C16.0841 10.7402 15.3254 11.0503 14.6261 11.4593C13.9268 11.8684 13.2868 12.3632 12.7063 12.9437L8.78752 11.3208L7.24377 14.0125L10.6479 16.5458C10.516 16.9416 10.4236 17.3375 10.3709 17.7333C10.3181 18.1291 10.2917 18.5513 10.2917 19C10.2917 19.4222 10.3181 19.8312 10.3709 20.227C10.4236 20.6229 10.516 21.0187 10.6479 21.4145L7.24377 23.9875L8.78752 26.6791L12.7063 25.0166C13.2868 25.6236 13.9268 26.1316 14.6261 26.5406C15.3254 26.9496 16.0841 27.2597 16.9021 27.4708L17.4167 31.6666ZM19.0792 24.5416C20.6097 24.5416 21.916 24.0007 22.9979 22.9187C24.0799 21.8368 24.6209 20.5305 24.6209 19C24.6209 17.4694 24.0799 16.1632 22.9979 15.0812C21.916 13.9993 20.6097 13.4583 19.0792 13.4583C17.5222 13.4583 16.2094 13.9993 15.1406 15.0812C14.0719 16.1632 13.5375 17.4694 13.5375 19C13.5375 20.5305 14.0719 21.8368 15.1406 22.9187C16.2094 24.0007 17.5222 24.5416 19.0792 24.5416Z" fill="black"/>
</svg>
