<svg width="24" height="24" viewBox="0 0 33 33" fill="none" xmlns="http://www.w3.org/2000/svg">
<path d="M28.6962 21.0645C27.3937 24.5403 24.6492 27.3109 21.1906 28.6478C20.3751 28.9636 19.4888 28.3636 19.4867 27.4886C19.4867 27.4831 19.4867 27.4776 19.4867 27.4721C19.4867 22.4532 23.2186 20.5232 27.1834 19.4204C28.169 19.1462 29.055 20.106 28.6962 21.0645ZM6.01445 13.5503C5.00236 14.0703 3.87274 13.0754 4.26452 12.0072C6.09315 7.02447 10.879 3.46962 16.4955 3.46962C22.1123 3.46962 26.8978 7.02447 28.7268 12.0072C29.1182 13.0754 27.9886 14.0703 26.9769 13.5503C23.8 11.9186 19.7115 10.9161 16.4955 10.9161C13.2795 10.9161 9.19093 11.9186 6.01445 13.5503ZM13.5042 27.4886C13.5022 28.3636 12.6162 28.9636 11.8004 28.6478C8.34208 27.3109 5.59724 24.5403 4.2951 21.0645C3.93597 20.106 4.82194 19.1462 5.80791 19.4204C9.77241 20.5232 13.5042 22.4532 13.5042 27.4721C13.5042 27.4776 13.5042 27.4831 13.5042 27.4886ZM16.4955 0C7.38532 0 0 7.38463 0 16.4951C0 25.6057 7.38532 32.991 16.4955 32.991C25.6057 32.991 32.9913 25.6057 32.9913 16.4951C32.9913 7.38463 25.6057 0 16.4955 0Z" fill="black"/>
</svg>
