<svg xmlns="http://www.w3.org/2000/svg" xmlns:xlink="http://www.w3.org/1999/xlink" zoomAndPan="magnify" viewBox="0 0 375 375" preserveAspectRatio="xMidYMid meet" version="1.0"><path fill="#014d47" d="M 232.894531 262.105469 L 225.789062 258.949219 C 224.210938 258.15625 222.238281 258.550781 220.65625 259.738281 C 213.15625 266.449219 206.449219 269.605469 201.316406 271.183594 C 196.578125 272.761719 192.238281 268.421875 193.421875 263.683594 L 223.027344 153.550781 C 223.421875 151.578125 223.421875 149.210938 222.238281 147.632812 C 220.65625 145.261719 218.289062 143.683594 215.527344 143.683594 C 215.132812 143.683594 214.738281 143.683594 214.34375 143.683594 L 155.527344 153.550781 C 151.578125 154.34375 148.816406 157.894531 149.210938 162.238281 L 150 168.550781 C 150.394531 172.105469 153.550781 174.867188 157.5 174.867188 L 167.761719 174.867188 L 140.527344 274.34375 C 140.527344 274.34375 140.527344 274.34375 140.527344 274.738281 C 139.738281 279.078125 139.34375 285.789062 142.894531 292.5 C 149.605469 305.132812 162.238281 307.5 175.261719 307.5 C 208.027344 307.5 228.15625 281.84375 234.867188 268.027344 C 236.449219 266.050781 235.261719 263.289062 232.894531 262.105469 Z M 232.894531 262.105469 " fill-opacity="1" fill-rule="nonzero"/><path fill="#014d47" d="M 205.65625 129.867188 C 222.632812 129.867188 236.449219 116.050781 236.449219 99.078125 C 236.449219 82.105469 222.632812 68.289062 205.65625 68.289062 C 188.683594 68.289062 174.867188 82.105469 174.867188 99.078125 C 174.867188 116.050781 188.683594 129.867188 205.65625 129.867188 Z M 205.65625 129.867188 " fill-opacity="1" fill-rule="nonzero"/><path fill="#014d47" d="M 187.5 0 C 84.078125 0 0 84.078125 0 187.5 C 0 290.921875 84.078125 375 187.5 375 C 290.921875 375 375 290.921875 375 187.5 C 375 84.078125 290.921875 0 187.5 0 Z M 187.5 346.972656 C 99.472656 346.972656 28.027344 275.527344 28.027344 187.5 C 28.027344 99.472656 99.472656 28.027344 187.5 28.027344 C 275.527344 28.027344 346.972656 99.472656 346.972656 187.5 C 346.972656 275.527344 275.527344 346.972656 187.5 346.972656 Z M 187.5 346.972656 " fill-opacity="1" fill-rule="nonzero"/></svg>